<?xml version="1.0" encoding="UTF-8" standalone="no"?>
<!-- Generator: Adobe Illustrator 19.1.0, SVG Export Plug-In . SVG Version: 6.00 Build 0)  -->

<svg
   xmlns:dc="http://purl.org/dc/elements/1.1/"
   xmlns:cc="http://creativecommons.org/ns#"
   xmlns:rdf="http://www.w3.org/1999/02/22-rdf-syntax-ns#"
   xmlns:svg="http://www.w3.org/2000/svg"
   xmlns="http://www.w3.org/2000/svg"
   xmlns:sodipodi="http://sodipodi.sourceforge.net/DTD/sodipodi-0.dtd"
   xmlns:inkscape="http://www.inkscape.org/namespaces/inkscape"
   version="1.1"
   id="Capa_1"
   x="0px"
   y="0px"
   viewBox="0 0 473 473"
   style="enable-background:new 0 0 473 473;"
   xml:space="preserve"
   sodipodi:docname="chat2.svg"
   inkscape:version="0.92.3 (3ce5693, 2018-03-11)"><metadata
   id="metadata49"><rdf:RDF><cc:Work
       rdf:about=""><dc:format>image/svg+xml</dc:format><dc:type
         rdf:resource="http://purl.org/dc/dcmitype/StillImage" /><dc:title></dc:title></cc:Work></rdf:RDF></metadata><defs
   id="defs47" /><sodipodi:namedview
   pagecolor="#ffffff"
   bordercolor="#666666"
   borderopacity="1"
   objecttolerance="10"
   gridtolerance="10"
   guidetolerance="10"
   inkscape:pageopacity="0"
   inkscape:pageshadow="2"
   inkscape:window-width="1920"
   inkscape:window-height="1043"
   id="namedview45"
   showgrid="false"
   inkscape:zoom="0.49894292"
   inkscape:cx="236.5"
   inkscape:cy="236.5"
   inkscape:window-x="0"
   inkscape:window-y="37"
   inkscape:window-maximized="1"
   inkscape:current-layer="Capa_1" />
<g
   id="g12">
	<g
   id="g10">
		<path
   d="M403.581,69.3c-44.7-44.7-104-69.3-167.2-69.3s-122.5,24.6-167.2,69.3c-86.4,86.4-92.4,224.7-14.9,318    c-7.6,15.3-19.8,33.1-37.9,42c-8.7,4.3-13.6,13.6-12.1,23.2s8.9,17.1,18.5,18.6c4.5,0.7,10.9,1.4,18.7,1.4    c20.9,0,51.7-4.9,83.2-27.6c35.1,18.9,73.5,28.1,111.6,28.1c61.2,0,121.8-23.7,167.4-69.3c44.7-44.7,69.3-104,69.3-167.2    S448.281,114,403.581,69.3z M384.481,384.6c-67.5,67.5-172,80.9-254.2,32.6c-5.4-3.2-12.1-2.2-16.4,2.1c-0.4,0.2-0.8,0.5-1.1,0.8    c-27.1,21-53.7,25.4-71.3,25.4h-0.1c20.3-14.8,33.1-36.8,40.6-53.9c1.2-2.9,1.4-5.9,0.7-8.7c-0.3-2.7-1.4-5.4-3.3-7.6    c-73.2-82.7-69.4-208.7,8.8-286.9c81.7-81.7,214.6-81.7,296.2,0C466.181,170.1,466.181,302.9,384.481,384.6z"
   id="path2" />
		<circle
   cx="236.381"
   cy="236.5"
   r="16.6"
   id="circle4" />
		<circle
   cx="321.981"
   cy="236.5"
   r="16.6"
   id="circle6" />
		<circle
   cx="150.781"
   cy="236.5"
   r="16.6"
   id="circle8" />
	</g>
</g>
<g
   id="g14">
</g>
<g
   id="g16">
</g>
<g
   id="g18">
</g>
<g
   id="g20">
</g>
<g
   id="g22">
</g>
<g
   id="g24">
</g>
<g
   id="g26">
</g>
<g
   id="g28">
</g>
<g
   id="g30">
</g>
<g
   id="g32">
</g>
<g
   id="g34">
</g>
<g
   id="g36">
</g>
<g
   id="g38">
</g>
<g
   id="g40">
</g>
<g
   id="g42">
</g>
<path
   style="fill:#ffffff;stroke-width:2.00423717"
   d="m 55.331953,433.72665 c 13.730983,-14.4372 25.890384,-34.97735 27.159285,-45.87854 0.907968,-7.80041 0.106325,-9.54447 -11.414217,-24.8334 C 41.974212,324.39236 28.625701,284.28561 28.686493,235.64872 28.789003,153.63465 74.245605,82.947294 149.64927,47.545379 c 30.10454,-14.134044 48.77854,-18.016854 86.65031,-18.016854 39.3072,0 57.31984,3.979671 90.19067,19.926507 55.39508,26.874169 93.16525,71.621578 110.26715,130.636628 9.40857,32.46699 9.80246,75.02911 1.013,109.45964 -5.83742,22.86672 -23.18275,57.28707 -38.61229,76.62285 -44.84602,56.19954 -116.85201,85.93378 -187.17265,77.29131 -22.1255,-2.71925 -56.33805,-13.25224 -72.35997,-22.2774 -13.20438,-7.43804 -19.85542,-7.44668 -30.08139,-0.0391 -16.288613,11.7994 -36.911366,20.04163 -57.352049,22.92168 l -7.734647,1.08978 10.874549,-11.43385 z M 163.32066,247.73708 c 5.36083,-5.70635 5.82229,-14.51609 1.13506,-21.66971 -6.41155,-9.78525 -20.25972,-9.15516 -28.02503,1.27515 -3.40967,4.57984 -3.77031,6.70674 -2.20897,13.02754 3.34209,13.52981 19.47276,17.61362 29.09894,7.36702 z m 86.05155,-0.32549 c 7.39662,-9.40326 4.53655,-22.15632 -5.9423,-26.4968 -16.95675,-7.02371 -31.47147,12.17123 -20.11793,26.60491 6.63252,8.43188 19.3843,8.37899 26.06023,-0.10803 z m 87.17056,-1.1425 c 4.83742,-6.9064 3.67661,-14.9877 -3.13066,-21.79499 -5.27876,-5.27875 -7.11104,-5.94475 -13.5286,-4.91738 -9.3177,1.49165 -14.43775,7.59722 -14.43775,17.2168 0,7.97612 5.55811,15.05124 13.02755,16.58318 5.89542,1.20913 14.66849,-2.23204 18.06946,-7.08761 z"
   id="path3754"
   inkscape:connector-curvature="0" /></svg>